<svg width="19" height="19" viewBox="0 0 19 19" fill="none" xmlns="http://www.w3.org/2000/svg">
<path d="M9.5 14.25C9.71667 14.25 9.896 14.1793 10.038 14.038C10.1793 13.896 10.25 13.7167 10.25 13.5V9.225C10.25 9.025 10.1793 8.854 10.038 8.712C9.896 8.57067 9.71667 8.5 9.5 8.5C9.28333 8.5 9.10433 8.57067 8.963 8.712C8.821 8.854 8.75 9.03333 8.75 9.25V13.525C8.75 13.725 8.821 13.896 8.963 14.038C9.10433 14.1793 9.28333 14.25 9.5 14.25ZM9.5 6.8C9.73333 6.8 9.925 6.72067 10.075 6.562C10.225 6.404 10.3 6.20833 10.3 5.975C10.3 5.75833 10.225 5.57067 10.075 5.412C9.925 5.254 9.73333 5.175 9.5 5.175C9.26667 5.175 9.075 5.254 8.925 5.412C8.775 5.57067 8.7 5.75833 8.7 5.975C8.7 6.20833 8.775 6.404 8.925 6.562C9.075 6.72067 9.26667 6.8 9.5 6.8ZM9.5 19C8.18333 19 6.946 18.75 5.788 18.25C4.62933 17.75 3.625 17.075 2.775 16.225C1.925 15.375 1.25 14.3707 0.75 13.212C0.25 12.054 0 10.8167 0 9.5C0 8.18333 0.25 6.94567 0.75 5.787C1.25 4.629 1.925 3.625 2.775 2.775C3.625 1.925 4.62933 1.25 5.788 0.75C6.946 0.25 8.18333 0 9.5 0C10.8167 0 12.0543 0.25 13.213 0.75C14.371 1.25 15.375 1.925 16.225 2.775C17.075 3.625 17.75 4.629 18.25 5.787C18.75 6.94567 19 8.18333 19 9.5C19 10.8167 18.75 12.054 18.25 13.212C17.75 14.3707 17.075 15.375 16.225 16.225C15.375 17.075 14.371 17.75 13.213 18.25C12.0543 18.75 10.8167 19 9.5 19ZM9.5 17.5C11.7167 17.5 13.6043 16.721 15.163 15.163C16.721 13.6043 17.5 11.7167 17.5 9.5C17.5 7.28333 16.721 5.39567 15.163 3.837C13.6043 2.279 11.7167 1.5 9.5 1.5C7.28333 1.5 5.396 2.279 3.838 3.837C2.27933 5.39567 1.5 7.28333 1.5 9.5C1.5 11.7167 2.27933 13.6043 3.838 15.163C5.396 16.721 7.28333 17.5 9.5 17.5Z" fill="white"/>
</svg>
